DBRep_DrawableShape

CASCADE Topology V3, (c) Open Cascade
Locations 2
1
              1               0               0               0 
              0               1               0               0 
              0               0               1               3 
2  1 -1 0
Curve2ds 40
1 3.1415926535897931 0 0 -1 
1 3.1415926535897931 0 0 -1 
1 0.15000000000000002 0 0 -1 
1 6.2831853071795862 0 0 -1 
1 0 0 0 -1 
1 0.15000000000000002 0 0 -1 
2 -3.5584071302088347e-17 -3.6067601145968143e-17 -1 -2.7183549135957717e-64 2.7183549135957717e-64 -1 0.65000000000000002
2 0 0 1 0 0 -1 0.65000000000000002
1 0 0 1 0 
1 0 -3 1 0 
2 0.31061444482401862 -7.9565983431469528e-17 0 -1 1 0 0.65000000000000002
1 6.2831853071795862 0 0 -1 
1 0 0 0 -1 
1 0 0 0 -1 
1 0.31061444482401862 -0.49999999999999994 0 -1 
1 0 0 1 0 
1 0 -3 1 0 
1 0.31061444482401862 -0.50000000000000011 0 -1 
1 3.1415926535897931 0 0 -1 
1 3.1415926535897931 0 0 -1 
1 0 -0 0 -1 
1 0 0 1 0 
1 0 -3 1 0 
2 0.31061444482401862 -7.9565983431469528e-17 0 -1 1 0 0.5
1 0.31061444482401862 0.5 0 1 
1 0 -0 1 0 
1 0 -3 1 0 
1 0.31061444482401862 0.49999999999999994 0 1 
1 0 0 1 0 
1 0 -3 1 0 
2 0.31061444482401862 4.2558549277297664e-17 0 -1 -1 -0 0.5
2 -3.5584071302088347e-17 -3.6067601145968143e-17 -1 -2.7183549135957717e-64 2.7183549135957717e-64 -1 0.65000000000000002
2 0 0 1 0 0 -1 0.65000000000000002
1 0 0 1 0 
1 0 -3 1 0 
2 0.31061444482401862 4.2558549277297664e-17 0 -1 -1 -0 0.65000000000000002
1 -3 -2 1 0 
1 -3 2 0 -1 
1 3 -2 0 1 
1 3 2 -1 0 
Curves 18
1 -0.65000000000000002 0 -1.5 0 0 1 
1 0.65000000000000002 0 -1.5 0 0 1 
2 0 0 -1.5 -0 -0 -1 1 0 -0 0 -1 0 0.65000000000000002
1 0.5 0 -1.5 0 0 1 
1 0.5 0 -1.5 1 0 0 
1 -0.5 0 -1.5 0 0 1 
2 0 0 -1.5 -0 -0 -1 1 0 -0 0 -1 0 0.5
1 -0.5 0 -1.5 -1 0 0 
2 0 0 -1.5 -0 -0 -1 1 0 -0 0 -1 0 0.5
2 0 0 -1.5 -0 -0 -1 1 0 -0 0 -1 0 0.65000000000000002
1 -3 -2 -1.5 0 0 1 
1 3 -2 -1.5 0 0 1 
1 -3 -2 -1.5 1 0 0 
1 -3 2 -1.5 0 0 1 
1 -3 2 -1.5 0 -1 0 
1 3 2 -1.5 0 0 1 
1 3 -2 -1.5 0 1 0 
1 3 2 -1.5 -1 0 0 
Polygon3D 0
PolygonOnTriangulations 0
Surfaces 14
2 0 0 -1.5 0 -0 -1 1 0 -0 0 -1 0 0.65000000000000002
2 0 0 -1.5 0 -0 -1 1 0 -0 0 -1 0 0.65000000000000002
1 -0.5 0 -1.5 0 -1 0 -1 0 0 -0 -0 -1 
1 0.5 0 -1.5 0 1 0 1 0 0 0 0 -1 
1 -3.5584071302088347e-17 3.6067601145968143e-17 -1.4999999999999998 -2.9173850045155774e-32 -9.3177791391546075e-33 -1 -1 0 2.9173850045155774e-32 -2.7183549135957717e-64 1 -9.3177791391546075e-33 
1 0 0 -1.5 0 0 1 1 0 -0 -0 1 0 
1 -7.9565983431469528e-17 0.31061444482401862 -1.4999999999999993 2.2880838393291231e-32 -7.2488053707297783e-31 -1 0 -1 7.2488053707297783e-31 -1 -1.6585874423208958e-62 -2.2880838393291231e-32 
2 0 0 -1.5 0 -0 -1 1 0 -0 0 -1 0 0.5
2 0 0 -1.5 0 -0 -1 1 0 -0 0 -1 0 0.5
1 4.2558549277297664e-17 -0.31061444482401862 -1.4999999999999993 1.716062879496846e-32 -4.3829985962552139e-31 1 0 1 4.3829985962552139e-31 -1 -7.5215011919203561e-63 1.716062879496846e-32 
1 -3 -2 -1.5 0 1 0 1 0 0 0 0 -1 
1 -3 2 -1.5 1 0 -0 0 -1 0 0 -0 -1 
1 3 -2 -1.5 -1 0 0 0 1 0 0 0 -1 
1 3 2 -1.5 0 -1 0 -1 0 0 -0 -0 -1 
Triangulations 0

TShapes 61
Ve
1e-07
-0.65 0 -1.5
0 0

0101101
*
Ed
 1e-07 1 1 0
1  1 0 0 3
2  1 1 0 0 3
2  2 2 0 0 3
4 C2 2 0 1 0
2  3 3 0 0 3
0

0101000
+61 0 -61 1 *
Ve
1e-07
0.65 0 -1.5
0 0

0101101
*
Ed
 1e-07 1 1 0
1  2 0 0 3
2  4 1 0 0 3
2  5 2 0 0 3
4 C2 2 0 1 0
2  6 4 0 0 3
0

0101000
+59 0 -59 1 *
Ed
 1e-07 1 1 0
1  3 0 3.14159265358979 6.28318530717959
2  7 5 0 3.14159265358979 6.28318530717959
2  8 6 0 3.14159265358979 6.28318530717959
2  9 1 0 3.14159265358979 6.28318530717959
2  10 1 2 3.14159265358979 6.28318530717959
2  11 7 0 3.14159265358979 6.28318530717959
0

0101000
+61 0 -59 0 *
Wi

0101100
+60 0 -58 0 -57 0 +57 1 *
Fa
0  1e-07 1 0

0101000
+56 0 *
Ve
1e-07
0.5 0 -1.5
0 0

0101101
*
Ed
 1e-07 1 1 0
1  4 0 0 3
2  12 8 0 0 3
2  13 9 0 0 3
2  14 4 0 0 3
0

0101000
+54 0 -54 1 *
Ed
 1e-07 1 1 0
1  5 0 0 0.15
2  15 10 0 0 0.15
2  16 4 0 0 0.15
2  17 4 2 0 0.15
2  18 7 0 0 0.15
0

0101000
+54 0 -59 0 *
Wi

0101100
+53 0 -58 0 -52 0 +52 1 *
Fa
0  1e-07 4 0

0101000
+51 0 *
Ve
1e-07
-0.5 0 -1.5
0 0

0101101
*
Ed
 1e-07 1 1 0
1  6 0 0 3
2  19 8 0 0 3
2  20 9 0 0 3
2  21 3 0 0 3
0

0101000
+49 0 -49 1 *
Ed
 1e-07 1 1 0
1  7 0 3.14159265358979 6.28318530717959
2  22 8 0 3.14159265358979 6.28318530717959
2  23 8 2 3.14159265358979 6.28318530717959
2  24 7 0 3.14159265358979 6.28318530717959
0

0101000
+49 0 -54 0 *
Wi

0101100
+48 0 -53 0 -47 0 +47 1 *
Fa
0  1e-07 8 0

0101000
+46 0 *
Ed
 1e-07 1 1 0
1  8 0 0 0.15
2  25 10 0 0 0.15
2  26 3 0 0 0.15
2  27 3 2 0 0.15
2  28 7 0 0 0.15
0

0101000
+49 0 -61 0 *
Wi

0101100
+48 0 -60 0 -44 0 +44 1 *
Fa
0  1e-07 3 0

0101000
+43 0 *
Wi

0101100
+57 0 -52 0 -47 0 +44 0 *
Fa
0  1e-07 7 0

0111000
+41 0 *
Sh

0101100
+55 0 -50 0 -45 0 +42 0 +40 0 -40 1 *
So

0100000
+39 0 *
Ed
 1e-07 1 1 0
1  9 0 0 3.14159265358979
2  29 9 0 0 3.14159265358979
2  30 9 2 0 3.14159265358979
2  31 10 0 0 3.14159265358979
0

0101000
+54 0 -49 0 *
Wi

0101100
+53 0 -48 0 -37 0 +37 1 *
Fa
0  1e-07 9 0

0101000
+36 0 *
Ed
 1e-07 1 1 0
1  10 0 0 3.14159265358979
2  32 5 0 0 3.14159265358979
2  33 6 0 0 3.14159265358979
2  34 2 0 0 3.14159265358979
2  35 2 2 0 3.14159265358979
2  36 10 0 0 3.14159265358979
0

0101000
+59 0 -61 0 *
Wi

0101100
+58 0 -60 0 -34 0 +34 1 *
Fa
0  1e-07 2 0

0101000
+33 0 *
Wi

0101100
+37 0 +44 0 -34 0 -52 0 *
Fa
0  1e-07 10 0

0111000
+31 0 *
Sh

0101100
+35 0 +42 0 -32 0 -50 0 +30 0 -30 1 *
So

0100000
-29 0 *
Ve
1e-07
-3 -2 -1.5
0 0

0101101
*
Ed
 1e-07 1 1 0
1  11 0 0 3
0

0101000
+27 0 -27 1 *
Ve
1e-07
3 -2 -1.5
0 0

0101101
*
Ed
 1e-07 1 1 0
1  12 0 0 3
0

0101000
+25 0 -25 1 *
Ed
 1e-07 1 1 0
1  13 0 0 6
2  37 6 0 0 6
0

0101000
+27 0 -25 0 *
Wi

0101100
+26 0 -24 0 -23 0 +23 1 *
Fa
0  1e-07 11 0

0101000
+22 0 *
Ve
1e-07
-3 2 -1.5
0 0

0101101
*
Ed
 1e-07 1 1 0
1  14 0 0 3
0

0101000
+20 0 -20 1 *
Ed
 1e-07 1 1 0
1  15 0 0 4
2  38 6 0 0 4
0

0101000
+20 0 -27 0 *
Wi

0101100
+19 0 -26 0 -18 0 +18 1 *
Fa
0  1e-07 12 0

0101000
+17 0 *
Ve
1e-07
3 2 -1.5
0 0

0101101
*
Ed
 1e-07 1 1 0
1  16 0 0 3
0

0101000
+15 0 -15 1 *
Ed
 1e-07 1 1 0
1  17 0 0 4
2  39 6 0 0 4
0

0101000
+25 0 -15 0 *
Wi

0101100
+24 0 -14 0 -13 0 +13 1 *
Fa
0  1e-07 13 0

0101000
+12 0 *
Ed
 1e-07 1 1 0
1  18 0 0 6
2  40 6 0 0 6
0

0101000
+15 0 -20 0 *
Wi

0101100
+14 0 -19 0 -10 0 +10 1 *
Fa
0  1e-07 14 0

0101000
+9 0 *
Wi

0101100
+23 0 +18 0 +13 0 +10 0 *
Wi

0101100
+34 0 +57 0 *
Fa
0  1e-07 6 0

0101000
+7 0 +6 0 *
Sh

0101100
+21 0 +16 0 +11 0 +8 0 +32 0 +55 0 +5 0 -5 1 *
So

0100000
-4 0 *
Ve
1e-07
0 0 -1.5
0 0

0101101
*
Co

1100000
+38 0 +28 0 +3 0 +2 0 *

+1 0 